<svg width="734" height="640" viewBox="0 0 734 640" fill="none" xmlns="http://www.w3.org/2000/svg" xmlns:xlink="http://www.w3.org/1999/xlink">
<rect width="734" height="640" fill="url(#pattern0)"/>
<defs>
<pattern id="pattern0" patternContentUnits="objectBoundingBox" width="1" height="1">
<use xlink:href="#image0" transform="translate(-0.00408719) scale(0.0013624 0.0015625)"/>
</pattern>
<image id="image0" width="740" height="640" xlink:href="/img/home.png"/>
</defs>
<path d="M223 531L443.8 539L513 525.3V547L444.5 566.7L223 555.7V531Z" fill="#3595F6" fill-opacity="0.75"/>
<path d="M223 530V505L443.3 508.3L513 505V525L443.7 538L223 530Z" fill="#3595F6" fill-opacity="0.75"/>
<path d="M223 504V479H444H513V502L445 509L223 504Z" fill="#3595F6" fill-opacity="0.75"/>
<path d="M224 480V455L445.3 451.3L513 458V480H445" fill="#3595F6" fill-opacity="0.75"/>
<path d="M224 454V428L445.5 424.7L514 435.7V457L445 450.3L224 454Z" fill="#3595F6" fill-opacity="0.75"/>
<path d="M222 427V403.3L443 391L514 414V435.3L443 423L222 427Z" fill="#3595F6" fill-opacity="0.75"/>
<path d="M222 405V380L444.2 363.7L514 392.3V413L443.7 391.3L222 405Z" fill="#3595F6" fill-opacity="0.75"/>
<path d="M222 380V355L444.5 334.7L514 371.3V392L442 363.3L222 380Z" fill="#3595F6" fill-opacity="0.75"/>
<path d="M222 354V330L445 305.3L514 349.3V371L444.7 333L222 354Z" fill="#3595F6" fill-opacity="0.75"/>
<path d="M222 330V306L444.5 277.3L514 328.3V349L443.7 306.7L222 330Z" fill="#3595F6" fill-opacity="0.75"/>
<path d="M221 305V281L443.3 248L514 307.3V327L444 276.3L221 305Z" fill="#3595F6" fill-opacity="0.75"/>
<path d="M223 280V256L444.2 221L514 285V306L445.3 247.7L223 280Z" fill="#3595F6" fill-opacity="0.75"/>
<path d="M223 255V230L445.3 192L514 262.3V283L445 219L223 255Z" fill="#3595F6" fill-opacity="0.75"/>
<path d="M223 230V205L443.8 161.3L514 240.3V263L445 189.7L223 230Z" fill="#3595F6" fill-opacity="0.75"/>
<path d="M224 206V181L444 133L514 218V241L443.3 161.7L224 206Z" fill="#3595F6" fill-opacity="0.75"/>
<path d="M223 181V156L442.8 104L514 196.3V219L444.3 132.7L223 181Z" fill="#3595F6" fill-opacity="0.75"/>
<path d="M223 156V130L445 73.3L514 175V196L444.7 104.3L223 156Z" fill="#3595F6" fill-opacity="0.75"/>

</svg>
